Love for All and Sharing is the first step to solving all the problems of humanity.

Websites I want to share.

    
http://www.shareintl.org/

    
http://www.lightmiddleway.com


Thank you very much

No credit for me...credit to EVERYONE for sharing
 
http://thepiratebay.org/user/raymondhome/

PLOT
A former spy relies on his old skills to save his estranged daughter, who has been forced into the slave trade.

IMDb RATING: 7.9/10 (100,487 votes)

Format : AVI
Format/Info : Audio Video Interleave
File size : 1.46 GiB
Duration : 1h 30mn
Overall bit rate : 2 306 Kbps
Writing application : VirtualDubMod 1.5.4.1 (build 2178/release)
Writing library : VirtualDubMod build 2178/release
Video
ID : 0
Format : MPEG-4 Visual
Format profile : Simple@L0
Format settings, BVOP : No
Format settings, QPel : No
Format settings, GMC : No warppoints
Format settings, Matrix : Default (H.263)
Codec ID : XVID
Codec ID/Hint : XviD
Duration : 1h 30mn
Bit rate : 1 851 Kbps
Width : 720 pixels
Height : 320 pixels
Display aspect ratio : 2.25:1
Frame rate : 23.976 fps
Resolution : 8 bits
Colorimetry : 4:2:0
Scan type : Progressive
Bits/(Pixel*Frame) : 0.335
Stream size : 1.18 GiB (80%)
Writing library : XviD 1.2.0.dev47 (UTC 2006-11-01)
Audio
ID : 1
Format : AC-3
Format/Info : Audio Coding 3
Codec ID : 2000
Duration : 1h 30mn
Bit rate mode : Constant
Bit rate : 448 Kbps
Channel(s) : 6 channels
Channel positions : Front: L C R, Surround: L R, LFE
Sampling rate : 48.0 KHz
Stream size : 291 MiB (19%)
Alignment : Split accross interleaves
Interleave, duration : 83 ms (2.00 video frames)
Interleave, preload duration : 500 ms
Language : English

credit Pro2kon BIG BIG BIG TIME & to all the people who made it possible for me to share this with everyone

*****help what we can with haiti or any other in need...the world is ONE big family*****